<svg width="463" height="155" viewBox="0 0 463 155" fill="none" xmlns="http://www.w3.org/2000/svg">
<path fill-rule="evenodd" clip-rule="evenodd" d="M135.58 128.593C147.592 114.95 154.879 97.0458 154.879 77.4394C154.879 56.7796 146.788 38.0095 133.603 24.1242C137.982 32.4763 136.952 42.5307 134.903 48.7545H114.582C125.226 18.166 91.2611 32.0083 89.0355 33.073C76.3497 38.9172 68.5587 45.8415 64.7933 49.188C64.193 49.7215 63.695 50.1641 63.2958 50.4969C34.5563 76.2455 30.6857 97.5413 29.9116 103.93C28.9903 121.624 47.8911 115.015 53.881 112.92C54.1827 112.815 54.4516 112.721 54.6836 112.642C77.0559 103.194 94.777 87.5387 100.841 80.8918H62.4249V61.048H135.58V128.593ZM128.034 136.067H115.743V95.7989C99.447 112.821 80.8893 123.055 75.346 126.113C74.9315 126.341 74.5897 126.53 74.3271 126.678C58.3607 134.422 52.1677 135.487 45.2973 136.648C31.2642 136.84 28.0195 135.314 23.7091 133.206C37.6343 146.626 56.573 154.879 77.4394 154.879C96.7791 154.879 114.463 147.789 128.034 136.067ZM10.8982 117.075C3.97683 105.48 0 91.9242 0 77.4394C0 34.6708 34.6708 0 77.4394 0C92.8246 0 107.162 4.48667 119.214 12.223C116.924 11.4066 114.357 10.7622 111.485 10.3252C110.785 10.3675 110.082 10.406 109.373 10.4448C98.7144 11.0284 86.7281 11.6846 63.6829 26.2971C57.4898 30.7499 39.7817 44.0114 30.3954 57.8536C21.0091 71.6959 11.9131 85.151 9.39719 105.188C9.39719 109.105 9.72332 113.146 10.8982 117.075Z" fill="#75C631"/>
<path d="M204.292 68.594V58.1891H228.533V68.594H204.292ZM215.693 81.1021V58.5212H228.533V81.1021H215.693ZM182.154 80.9914V41.9176H194.994V80.9914H182.154ZM182.154 42.0283C182.154 37.822 183.15 34.0954 185.142 30.8485C187.135 27.6016 189.865 25.0557 193.334 23.2109C196.876 21.366 200.897 20.4436 205.399 20.4436V30.8485C202.152 30.8485 199.606 31.8447 197.761 33.8372C195.916 35.7558 194.994 38.4862 194.994 42.0283H182.154ZM182.154 80.9914H194.994C194.994 84.4597 195.916 87.19 197.761 89.1825C199.606 91.1011 202.152 92.0604 205.399 92.0604V102.576C200.897 102.576 196.876 101.654 193.334 99.8088C189.865 97.9639 187.135 95.418 185.142 92.1711C183.15 88.9242 182.154 85.1976 182.154 80.9914ZM217.464 45.1276C217.095 40.7 215.841 37.2317 213.701 34.7227C211.561 32.1399 208.756 30.8485 205.288 30.8485V20.4436C212.003 20.4436 217.464 22.436 221.67 26.4209C225.877 30.332 228.349 35.8665 229.087 43.0245L217.464 45.1276ZM228.533 80.9914C228.533 85.1976 227.537 88.9242 225.545 92.1711C223.552 95.418 220.822 97.9639 217.353 99.8088C213.885 101.654 209.863 102.576 205.288 102.576V92.0604C208.535 92.0604 211.081 91.1011 212.926 89.1825C214.771 87.19 215.693 84.4597 215.693 80.9914H228.533Z" fill="white"/>
<path d="M242.956 100.805V22.2147H255.796V100.805H242.956Z" fill="white"/>
<path d="M303.156 80.9914V41.9176H315.996V80.9914H303.156ZM269.617 80.9914V41.9176H282.457V80.9914H269.617ZM315.996 42.139H303.156C303.156 38.5969 302.233 35.8665 300.389 33.9479C298.544 31.9554 295.998 30.9592 292.751 30.9592V20.5543C297.326 20.5543 301.348 21.4767 304.816 23.3216C308.285 25.1664 311.015 27.7123 313.007 30.9592C315 34.2061 315.996 37.9327 315.996 42.139ZM269.617 42.139C269.617 37.9327 270.613 34.2061 272.605 30.9592C274.598 27.7123 277.328 25.1664 280.796 23.3216C284.339 21.4767 288.36 20.5543 292.862 20.5543V30.9592C289.615 30.9592 287.069 31.9554 285.224 33.9479C283.379 35.8665 282.457 38.5969 282.457 42.139H269.617ZM315.996 80.8807C315.996 85.0869 315 88.8135 313.007 92.0604C311.015 95.3074 308.285 97.8532 304.816 99.6981C301.348 101.543 297.326 102.465 292.751 102.465V91.9497C295.998 91.9497 298.544 90.9904 300.389 89.0718C302.233 87.0794 303.156 84.349 303.156 80.8807H315.996ZM269.617 80.8807H282.457C282.457 84.349 283.379 87.0794 285.224 89.0718C287.069 90.9904 289.615 91.9497 292.862 91.9497V102.465C288.36 102.465 284.339 101.543 280.796 99.6981C277.328 97.8532 274.598 95.3074 272.605 92.0604C270.613 88.8135 269.617 85.0869 269.617 80.8807Z" fill="white"/>
<path d="M338.278 100.805V90.2894H365.84V100.805H338.278ZM328.758 100.805V22.2147H341.598V100.805H328.758Z" fill="white"/>
<path d="M383.112 100.805V90.2894H412.887V100.805H383.112ZM384.219 66.9337V56.3074H406.246V66.9337H384.219ZM374.699 22.2147H387.539V100.805H374.699V22.2147ZM384.219 22.2147H411.781V32.6196H384.219V22.2147Z" fill="white"/>
<path d="M432.404 100.805V90.2894H462.179V100.805H432.404ZM433.511 66.9337V56.3074H455.538V66.9337H433.511ZM423.991 22.2147H436.831V100.805H423.991V22.2147ZM433.511 22.2147H461.072V32.6196H433.511V22.2147Z" fill="white"/>
<path d="M187.073 126.216V123.697H192.839V126.216H187.073ZM189.785 129.245V123.777H192.839V129.245H189.785ZM181.808 129.219V119.756H184.862V129.219H181.808ZM181.808 119.783C181.808 118.765 182.045 117.862 182.519 117.076C182.993 116.289 183.642 115.673 184.467 115.226C185.309 114.779 186.266 114.556 187.337 114.556V117.076C186.564 117.076 185.959 117.317 185.52 117.8C185.081 118.264 184.862 118.925 184.862 119.783H181.808ZM181.808 129.219H184.862C184.862 130.059 185.081 130.72 185.52 131.202C185.959 131.667 186.564 131.899 187.337 131.899V134.446C186.266 134.446 185.309 134.222 184.467 133.776C183.642 133.329 182.993 132.712 182.519 131.926C182.045 131.14 181.808 130.237 181.808 129.219ZM190.206 120.534C190.119 119.461 189.82 118.622 189.311 118.014C188.802 117.388 188.135 117.076 187.31 117.076V114.556C188.908 114.556 190.206 115.039 191.207 116.004C192.207 116.951 192.795 118.291 192.971 120.024L190.206 120.534ZM192.839 129.219C192.839 130.237 192.602 131.14 192.128 131.926C191.654 132.712 191.005 133.329 190.18 133.776C189.355 134.222 188.399 134.446 187.31 134.446V131.899C188.083 131.899 188.688 131.667 189.127 131.202C189.566 130.72 189.785 130.059 189.785 129.219H192.839Z" fill="white"/>
<path d="M198.271 134.017V131.47H204.826V134.017H198.271ZM196.006 134.017V114.985H199.06V134.017H196.006Z" fill="white"/>
<path d="M214.779 129.219V119.756H217.833V129.219H214.779ZM206.802 129.219V119.756H209.856V129.219H206.802ZM217.833 119.81H214.779C214.779 118.952 214.56 118.291 214.121 117.826C213.682 117.344 213.077 117.103 212.304 117.103V114.583C213.393 114.583 214.349 114.806 215.174 115.253C215.999 115.7 216.648 116.316 217.122 117.103C217.596 117.889 217.833 118.791 217.833 119.81ZM206.802 119.81C206.802 118.791 207.039 117.889 207.513 117.103C207.987 116.316 208.636 115.7 209.461 115.253C210.303 114.806 211.26 114.583 212.331 114.583V117.103C211.558 117.103 210.953 117.344 210.514 117.826C210.075 118.291 209.856 118.952 209.856 119.81H206.802ZM217.833 129.192C217.833 130.21 217.596 131.113 217.122 131.899C216.648 132.686 215.999 133.302 215.174 133.749C214.349 134.196 213.393 134.419 212.304 134.419V131.872C213.077 131.872 213.682 131.64 214.121 131.175C214.56 130.693 214.779 130.032 214.779 129.192H217.833ZM206.802 129.192H209.856C209.856 130.032 210.075 130.693 210.514 131.175C210.953 131.64 211.558 131.872 212.331 131.872V134.419C211.26 134.419 210.303 134.196 209.461 133.749C208.636 133.302 207.987 132.686 207.513 131.899C207.039 131.113 206.802 130.21 206.802 129.192Z" fill="white"/>
<path d="M225.344 125.144V122.973C226.117 122.973 226.722 122.732 227.161 122.249C227.6 121.749 227.819 121.061 227.819 120.185H230.873C230.873 121.114 230.628 121.954 230.136 122.705C229.662 123.455 229.004 124.054 228.161 124.501C227.337 124.93 226.398 125.144 225.344 125.144ZM223.396 134.017V131.47H225.634V134.017H223.396ZM223.396 125.412V122.973H225.608V125.412H223.396ZM228.082 128.817V128.2H231.137V128.817H228.082ZM228.082 128.227C228.082 127.333 227.863 126.645 227.424 126.163C226.986 125.662 226.38 125.412 225.608 125.412V123.241C226.661 123.241 227.6 123.464 228.425 123.911C229.267 124.34 229.925 124.93 230.399 125.68C230.891 126.431 231.137 127.28 231.137 128.227H228.082ZM223.396 117.505V114.985H225.371V117.505H223.396ZM230.873 120.212H227.819C227.819 119.354 227.6 118.693 227.161 118.228C226.722 117.746 226.117 117.505 225.344 117.505V114.985C226.433 114.985 227.389 115.208 228.214 115.655C229.039 116.102 229.688 116.718 230.162 117.505C230.636 118.291 230.873 119.193 230.873 120.212ZM231.137 128.79C231.137 129.808 230.9 130.711 230.426 131.497C229.952 132.283 229.302 132.9 228.477 133.347C227.652 133.793 226.696 134.017 225.608 134.017V131.47C226.38 131.47 226.986 131.238 227.424 130.773C227.863 130.291 228.082 129.63 228.082 128.79H231.137ZM220.869 134.017V114.985H223.923V134.017H220.869Z" fill="white"/>
<path d="M235.99 130.505V127.959H242.704V130.505H235.99ZM240.44 114.985L235.832 134.017H232.857L237.464 114.985H240.44ZM240.492 114.985L245.073 134.017H242.098L237.517 114.985H240.492Z" fill="white"/>
<path d="M249.461 134.017V131.47H256.016V134.017H249.461ZM247.196 134.017V114.985H250.251V134.017H247.196Z" fill="white"/>
<path d="M270.585 134.017L267.268 124.903H270.295L273.613 134.017H270.585ZM265.662 126.35V123.804H267.899V126.35H265.662ZM265.662 117.505V114.985H267.899V117.505H265.662ZM270.348 121.15V120.185H273.402V121.15H270.348ZM273.402 120.212H270.348C270.348 119.354 270.129 118.693 269.69 118.228C269.251 117.746 268.645 117.505 267.873 117.505V114.985C268.961 114.985 269.918 115.208 270.743 115.655C271.568 116.102 272.217 116.718 272.691 117.505C273.165 118.291 273.402 119.193 273.402 120.212ZM273.402 121.123C273.402 122.142 273.165 123.044 272.691 123.831C272.217 124.617 271.568 125.234 270.743 125.68C269.918 126.127 268.961 126.35 267.873 126.35V123.804C268.645 123.804 269.251 123.572 269.69 123.107C270.129 122.625 270.348 121.963 270.348 121.123H273.402ZM263.266 134.017V114.985H266.32V134.017H263.266Z" fill="white"/>
<path d="M278.251 134.017V131.47H285.333V134.017H278.251ZM278.514 125.814V123.241H283.753V125.814H278.514ZM276.25 114.985H279.304V134.017H276.25V114.985ZM278.514 114.985H285.069V117.505H278.514V114.985Z" fill="white"/>
<path d="M295.451 129.621C295.451 128.995 295.267 128.45 294.898 127.986C294.529 127.503 294.047 127.047 293.45 126.619C292.871 126.19 292.248 125.761 291.581 125.332C290.914 124.885 290.282 124.394 289.685 123.858C289.106 123.304 288.623 122.66 288.237 121.928C287.868 121.195 287.684 120.337 287.684 119.354H290.738C290.738 119.962 290.922 120.507 291.291 120.989C291.677 121.472 292.16 121.928 292.739 122.356C293.336 122.785 293.968 123.223 294.635 123.67C295.302 124.099 295.925 124.59 296.504 125.144C297.101 125.68 297.583 126.315 297.952 127.047C298.321 127.762 298.505 128.62 298.505 129.621H295.451ZM287.684 119.381C287.684 118.416 287.921 117.576 288.395 116.861C288.869 116.129 289.518 115.566 290.343 115.173C291.186 114.762 292.142 114.556 293.213 114.556V117.103C292.441 117.103 291.835 117.308 291.396 117.719C290.958 118.112 290.738 118.666 290.738 119.381H287.684ZM298.505 129.594C298.505 130.577 298.268 131.426 297.794 132.14C297.32 132.855 296.671 133.418 295.846 133.829C295.021 134.222 294.064 134.419 292.976 134.419V131.899C293.748 131.899 294.354 131.694 294.793 131.283C295.231 130.872 295.451 130.309 295.451 129.594H298.505ZM295.451 119.354C295.363 118.604 295.109 118.041 294.687 117.665C294.284 117.29 293.792 117.103 293.213 117.103V114.556C294.108 114.556 294.907 114.735 295.609 115.092C296.311 115.45 296.881 115.95 297.32 116.593C297.776 117.219 298.066 117.96 298.189 118.818L295.451 119.354ZM290.08 128.441C290.168 129.514 290.466 130.362 290.975 130.988C291.484 131.595 292.151 131.899 292.976 131.899V134.419C291.379 134.419 290.08 133.936 289.08 132.971C288.097 132.006 287.509 130.666 287.316 128.951L290.08 128.441Z" fill="white"/>
<path d="M308.881 129.219V119.756H311.935V129.219H308.881ZM300.903 129.219V119.756H303.957V129.219H300.903ZM311.935 119.81H308.881C308.881 118.952 308.661 118.291 308.222 117.826C307.784 117.344 307.178 117.103 306.406 117.103V114.583C307.494 114.583 308.45 114.806 309.275 115.253C310.1 115.7 310.75 116.316 311.224 117.103C311.698 117.889 311.935 118.791 311.935 119.81ZM300.903 119.81C300.903 118.791 301.14 117.889 301.614 117.103C302.088 116.316 302.737 115.7 303.562 115.253C304.405 114.806 305.361 114.583 306.432 114.583V117.103C305.66 117.103 305.054 117.344 304.615 117.826C304.177 118.291 303.957 118.952 303.957 119.81H300.903ZM311.935 129.192C311.935 130.21 311.698 131.113 311.224 131.899C310.75 132.686 310.1 133.302 309.275 133.749C308.45 134.196 307.494 134.419 306.406 134.419V131.872C307.178 131.872 307.784 131.64 308.222 131.175C308.661 130.693 308.881 130.032 308.881 129.192H311.935ZM300.903 129.192H303.957C303.957 130.032 304.177 130.693 304.615 131.175C305.054 131.64 305.66 131.872 306.432 131.872V134.419C305.361 134.419 304.405 134.196 303.562 133.749C302.737 133.302 302.088 132.686 301.614 131.899C301.14 131.113 300.903 130.21 300.903 129.192Z" fill="white"/>
<path d="M322.921 129.219V114.985H325.975V129.219H322.921ZM314.97 129.219V114.985H318.024V129.219H314.97ZM325.975 129.192C325.975 130.21 325.738 131.113 325.264 131.899C324.79 132.686 324.141 133.302 323.316 133.749C322.491 134.196 321.534 134.419 320.446 134.419V131.899C321.219 131.899 321.824 131.667 322.263 131.202C322.702 130.72 322.921 130.05 322.921 129.192H325.975ZM314.97 129.192H318.024C318.024 130.05 318.243 130.72 318.682 131.202C319.121 131.667 319.727 131.899 320.499 131.899V134.419C319.428 134.419 318.472 134.196 317.629 133.749C316.804 133.302 316.155 132.686 315.681 131.899C315.207 131.113 314.97 130.21 314.97 129.192Z" fill="white"/>
<path d="M336.456 134.017L333.139 124.903H336.166L339.484 134.017H336.456ZM331.533 126.35V123.804H333.77V126.35H331.533ZM331.533 117.505V114.985H333.77V117.505H331.533ZM336.219 121.15V120.185H339.273V121.15H336.219ZM339.273 120.212H336.219C336.219 119.354 335.999 118.693 335.561 118.228C335.122 117.746 334.516 117.505 333.744 117.505V114.985C334.832 114.985 335.789 115.208 336.614 115.655C337.439 116.102 338.088 116.718 338.562 117.505C339.036 118.291 339.273 119.193 339.273 120.212ZM339.273 121.123C339.273 122.142 339.036 123.044 338.562 123.831C338.088 124.617 337.439 125.234 336.614 125.68C335.789 126.127 334.832 126.35 333.744 126.35V123.804C334.516 123.804 335.122 123.572 335.561 123.107C335.999 122.625 336.219 121.963 336.219 121.123H339.273ZM329.137 134.017V114.985H332.191V134.017H329.137Z" fill="white"/>
<path d="M341.857 129.219V119.756H344.911V129.219H341.857ZM341.857 119.783C341.857 118.765 342.094 117.862 342.568 117.076C343.042 116.289 343.692 115.673 344.516 115.226C345.359 114.779 346.316 114.556 347.386 114.556V117.076C346.614 117.076 346.008 117.317 345.57 117.8C345.131 118.264 344.911 118.925 344.911 119.783H341.857ZM341.857 129.219H344.911C344.911 130.059 345.131 130.72 345.57 131.202C346.008 131.667 346.614 131.899 347.386 131.899V134.446C346.316 134.446 345.359 134.222 344.516 133.776C343.692 133.329 343.042 132.712 342.568 131.926C342.094 131.14 341.857 130.237 341.857 129.219ZM350.256 120.534C350.168 119.461 349.87 118.622 349.361 118.014C348.852 117.388 348.185 117.076 347.36 117.076V114.556C348.957 114.556 350.256 115.039 351.256 116.004C352.257 116.951 352.845 118.291 353.02 120.024L350.256 120.534ZM350.256 128.441L353.02 128.977C352.845 130.693 352.257 132.033 351.256 132.998C350.256 133.963 348.957 134.446 347.36 134.446V131.899C348.185 131.899 348.852 131.595 349.361 130.988C349.87 130.38 350.168 129.531 350.256 128.441Z" fill="white"/>
<path d="M357.388 134.017V131.47H364.47V134.017H357.388ZM357.652 125.814V123.241H362.891V125.814H357.652ZM355.387 114.985H358.441V134.017H355.387V114.985ZM357.652 114.985H364.207V117.505H357.652V114.985Z" fill="white"/>
<path d="M374.589 129.621C374.589 128.995 374.404 128.45 374.036 127.986C373.667 127.503 373.184 127.047 372.588 126.619C372.008 126.19 371.385 125.761 370.718 125.332C370.051 124.885 369.42 124.394 368.823 123.858C368.244 123.304 367.761 122.66 367.375 121.928C367.006 121.195 366.822 120.337 366.822 119.354H369.876C369.876 119.962 370.06 120.507 370.429 120.989C370.815 121.472 371.298 121.928 371.877 122.356C372.474 122.785 373.105 123.223 373.772 123.67C374.439 124.099 375.062 124.59 375.642 125.144C376.238 125.68 376.721 126.315 377.09 127.047C377.458 127.762 377.643 128.62 377.643 129.621H374.589ZM366.822 119.381C366.822 118.416 367.059 117.576 367.533 116.861C368.007 116.129 368.656 115.566 369.481 115.173C370.323 114.762 371.28 114.556 372.351 114.556V117.103C371.578 117.103 370.973 117.308 370.534 117.719C370.095 118.112 369.876 118.666 369.876 119.381H366.822ZM377.643 129.594C377.643 130.577 377.406 131.426 376.932 132.14C376.458 132.855 375.808 133.418 374.984 133.829C374.159 134.222 373.202 134.419 372.114 134.419V131.899C372.886 131.899 373.492 131.694 373.93 131.283C374.369 130.872 374.589 130.309 374.589 129.594H377.643ZM374.589 119.354C374.501 118.604 374.246 118.041 373.825 117.665C373.421 117.29 372.93 117.103 372.351 117.103V114.556C373.246 114.556 374.044 114.735 374.747 115.092C375.449 115.45 376.019 115.95 376.458 116.593C376.914 117.219 377.204 117.96 377.327 118.818L374.589 119.354ZM369.218 128.441C369.305 129.514 369.604 130.362 370.113 130.988C370.622 131.595 371.289 131.899 372.114 131.899V134.419C370.517 134.419 369.218 133.936 368.217 132.971C367.234 132.006 366.646 130.666 366.453 128.951L369.218 128.441Z" fill="white"/>
<path d="M387.579 134.017V131.47H394.135V134.017H387.579ZM385.315 134.017V114.985H388.369V134.017H385.315Z" fill="white"/>
<path d="M396.505 134.017V114.985H399.559V134.017H396.505Z" fill="white"/>
<path d="M409.03 134.017L413.164 114.985H415.612L411.479 134.017H409.03ZM408.951 134.017L404.818 114.985H407.266L411.4 134.017H408.951ZM403.107 134.017V114.985H406.161V134.017H403.107ZM414.27 134.017V114.985H417.324V134.017H414.27Z" fill="white"/>
<path d="M420.879 134.017V114.985H423.933V134.017H420.879Z" fill="white"/>
<path d="M426.299 117.505V114.985H437.883V117.505H426.299ZM430.564 134.017V114.985H433.618V134.017H430.564Z" fill="white"/>
<path d="M442.002 134.017V131.47H449.085V134.017H442.002ZM442.266 125.814V123.241H447.505V125.814H442.266ZM440.001 114.985H443.056V134.017H440.001V114.985ZM442.266 114.985H448.821V117.505H442.266V114.985Z" fill="white"/>
<path d="M458.939 128.817V120.185H461.993V128.817H458.939ZM454.121 134.017V131.47H456.465V134.017H454.121ZM454.121 117.505V114.985H456.465V117.505H454.121ZM454.121 117.505V114.985H456.465V117.505H454.121ZM461.993 120.212H458.939C458.939 119.354 458.72 118.693 458.281 118.228C457.842 117.746 457.237 117.505 456.465 117.505V114.985C457.553 114.985 458.509 115.208 459.334 115.655C460.159 116.102 460.809 116.718 461.283 117.505C461.756 118.291 461.993 119.193 461.993 120.212ZM461.993 128.79C461.993 129.808 461.756 130.711 461.283 131.497C460.809 132.283 460.159 132.9 459.334 133.347C458.509 133.793 457.553 134.017 456.465 134.017V131.47C457.237 131.47 457.842 131.238 458.281 130.773C458.72 130.291 458.939 129.63 458.939 128.79H461.993ZM451.726 134.017V114.985H454.78V134.017H451.726Z" fill="white"/>
</svg>
