<svg width="463" height="155" viewBox="0 0 463 155" fill="none" xmlns="http://www.w3.org/2000/svg">
<path fill-rule="evenodd" clip-rule="evenodd" d="M135.701 128.714C147.714 115.072 155 97.167 155 77.5606C155 56.9009 146.91 38.1307 133.724 24.2454C138.103 32.5975 137.073 42.6519 135.024 48.8757H114.703C125.347 18.2872 91.3824 32.1295 89.1567 33.1943C76.4709 39.0384 68.6799 45.9627 64.9146 49.3092C64.3142 49.8427 63.8162 50.2853 63.417 50.6181C34.6775 76.3667 30.8069 97.6625 30.0328 104.051C29.1115 121.746 48.0123 115.136 54.0022 113.042C54.3039 112.936 54.5728 112.842 54.8048 112.763C77.1771 103.316 94.8982 87.6599 100.962 81.0131H62.5461V61.1692H135.701V128.714ZM128.155 136.189H115.864V95.9201C99.5682 112.942 81.0105 123.177 75.4672 126.234C75.0527 126.462 74.7109 126.651 74.4483 126.799C58.4819 134.543 52.2889 135.608 45.4185 136.769C31.3854 136.962 28.1407 135.435 23.8303 133.327C37.7555 146.747 56.6943 155 77.5606 155C96.9003 155 114.584 147.91 128.155 136.189ZM11.0194 117.196C4.09804 105.601 0.121216 92.0454 0.121216 77.5606C0.121216 34.792 34.792 0.121216 77.5606 0.121216C92.9459 0.121216 107.283 4.60788 119.336 12.3442C117.045 11.5278 114.478 10.8834 111.606 10.4464C110.906 10.4887 110.203 10.5272 109.494 10.566C98.8356 11.1496 86.8494 11.8058 63.8041 26.4183C57.6111 30.8711 39.9029 44.1326 30.5166 57.9749C21.1303 71.8171 12.0343 85.2722 9.5184 105.31C9.5184 109.226 9.84454 113.267 11.0194 117.196Z" fill="#75C631"/>
<path d="M204.413 68.7152V58.3103H228.654V68.7152H204.413ZM215.814 81.2233V58.6424H228.654V81.2233H215.814ZM182.275 81.1126V42.0388H195.115V81.1126H182.275ZM182.275 42.1495C182.275 37.9432 183.271 34.2167 185.264 30.9697C187.256 27.7228 189.986 25.1769 193.455 23.3321C196.997 21.4872 201.019 20.5648 205.52 20.5648V30.9697C202.273 30.9697 199.727 31.966 197.882 33.9584C196.037 35.877 195.115 38.6074 195.115 42.1495H182.275ZM182.275 81.1126H195.115C195.115 84.5809 196.037 87.3113 197.882 89.3037C199.727 91.2223 202.273 92.1816 205.52 92.1816V102.697C201.019 102.697 196.997 101.775 193.455 99.93C189.986 98.0851 187.256 95.5393 185.264 92.2923C183.271 89.0454 182.275 85.3188 182.275 81.1126ZM217.585 45.2488C217.216 40.8212 215.962 37.3529 213.822 34.8439C211.682 32.2611 208.878 30.9697 205.409 30.9697V20.5648C212.124 20.5648 217.585 22.5572 221.791 26.5421C225.998 30.4532 228.47 35.9877 229.208 43.1457L217.585 45.2488ZM228.654 81.1126C228.654 85.3188 227.658 89.0454 225.666 92.2923C223.673 95.5393 220.943 98.0851 217.475 99.93C214.006 101.775 209.984 102.697 205.409 102.697V92.1816C208.656 92.1816 211.202 91.2223 213.047 89.3037C214.892 87.3113 215.814 84.5809 215.814 81.1126H228.654Z" fill="#005D4D"/>
<path d="M243.077 100.926V22.3359H255.917V100.926H243.077Z" fill="#005D4D"/>
<path d="M303.277 81.1126V42.0388H316.117V81.1126H303.277ZM269.738 81.1126V42.0388H282.578V81.1126H269.738ZM316.117 42.2602H303.277C303.277 38.7181 302.355 35.9877 300.51 34.0691C298.665 32.0766 296.119 31.0804 292.872 31.0804V20.6755C297.447 20.6755 301.469 21.5979 304.937 23.4428C308.406 25.2876 311.136 27.8335 313.128 31.0804C315.121 34.3274 316.117 38.0539 316.117 42.2602ZM269.738 42.2602C269.738 38.0539 270.734 34.3274 272.726 31.0804C274.719 27.8335 277.449 25.2876 280.918 23.4428C284.46 21.5979 288.481 20.6755 292.983 20.6755V31.0804C289.736 31.0804 287.19 32.0766 285.345 34.0691C283.5 35.9877 282.578 38.7181 282.578 42.2602H269.738ZM316.117 81.0019C316.117 85.2081 315.121 88.9347 313.128 92.1816C311.136 95.4286 308.406 97.9745 304.937 99.8193C301.469 101.664 297.447 102.587 292.872 102.587V92.071C296.119 92.071 298.665 91.1116 300.51 89.193C302.355 87.2006 303.277 84.4702 303.277 81.0019H316.117ZM269.738 81.0019H282.578C282.578 84.4702 283.5 87.2006 285.345 89.193C287.19 91.1116 289.736 92.071 292.983 92.071V102.587C288.481 102.587 284.46 101.664 280.918 99.8193C277.449 97.9745 274.719 95.4286 272.726 92.1816C270.734 88.9347 269.738 85.2081 269.738 81.0019Z" fill="#005D4D"/>
<path d="M338.399 100.926V90.4106H365.961V100.926H338.399ZM328.879 100.926V22.3359H341.72V100.926H328.879Z" fill="#005D4D"/>
<path d="M383.233 100.926V90.4106H413.009V100.926H383.233ZM384.34 67.0549V56.4286H406.367V67.0549H384.34ZM374.82 22.3359H387.66V100.926H374.82V22.3359ZM384.34 22.3359H411.902V32.7408H384.34V22.3359Z" fill="#005D4D"/>
<path d="M432.525 100.926V90.4106H462.3V100.926H432.525ZM433.632 67.0549V56.4286H455.659V67.0549H433.632ZM424.112 22.3359H436.952V100.926H424.112V22.3359ZM433.632 22.3359H461.194V32.7408H433.632V22.3359Z" fill="#005D4D"/>
<path d="M187.195 126.338V123.818H192.96V126.338H187.195ZM189.906 129.367V123.898H192.96V129.367H189.906ZM181.929 129.34V119.878H184.983V129.34H181.929ZM181.929 119.904C181.929 118.886 182.166 117.983 182.64 117.197C183.114 116.411 183.763 115.794 184.588 115.347C185.431 114.901 186.387 114.677 187.458 114.677V117.197C186.686 117.197 186.08 117.438 185.641 117.921C185.202 118.385 184.983 119.047 184.983 119.904H181.929ZM181.929 129.34H184.983C184.983 130.18 185.202 130.841 185.641 131.323C186.08 131.788 186.686 132.02 187.458 132.02V134.567C186.387 134.567 185.431 134.344 184.588 133.897C183.763 133.45 183.114 132.834 182.64 132.047C182.166 131.261 181.929 130.358 181.929 129.34ZM190.328 120.655C190.24 119.583 189.941 118.743 189.432 118.135C188.923 117.51 188.256 117.197 187.431 117.197V114.677C189.029 114.677 190.328 115.16 191.328 116.125C192.328 117.072 192.916 118.412 193.092 120.146L190.328 120.655ZM192.96 129.34C192.96 130.358 192.723 131.261 192.249 132.047C191.776 132.834 191.126 133.45 190.301 133.897C189.476 134.344 188.52 134.567 187.431 134.567V132.02C188.204 132.02 188.809 131.788 189.248 131.323C189.687 130.841 189.906 130.18 189.906 129.34H192.96Z" fill="#005D4D"/>
<path d="M198.392 134.138V131.592H204.947V134.138H198.392ZM196.127 134.138V115.106H199.181V134.138H196.127Z" fill="#005D4D"/>
<path d="M214.9 129.34V119.878H217.954V129.34H214.9ZM206.923 129.34V119.878H209.977V129.34H206.923ZM217.954 119.931H214.9C214.9 119.073 214.681 118.412 214.242 117.948C213.803 117.465 213.198 117.224 212.425 117.224V114.704C213.514 114.704 214.47 114.927 215.295 115.374C216.12 115.821 216.77 116.437 217.243 117.224C217.717 118.01 217.954 118.913 217.954 119.931ZM206.923 119.931C206.923 118.913 207.16 118.01 207.634 117.224C208.108 116.437 208.757 115.821 209.582 115.374C210.424 114.927 211.381 114.704 212.452 114.704V117.224C211.679 117.224 211.074 117.465 210.635 117.948C210.196 118.412 209.977 119.073 209.977 119.931H206.923ZM217.954 129.313C217.954 130.332 217.717 131.234 217.243 132.02C216.77 132.807 216.12 133.423 215.295 133.87C214.47 134.317 213.514 134.54 212.425 134.54V131.994C213.198 131.994 213.803 131.761 214.242 131.297C214.681 130.814 214.9 130.153 214.9 129.313H217.954ZM206.923 129.313H209.977C209.977 130.153 210.196 130.814 210.635 131.297C211.074 131.761 211.679 131.994 212.452 131.994V134.54C211.381 134.54 210.424 134.317 209.582 133.87C208.757 133.423 208.108 132.807 207.634 132.02C207.16 131.234 206.923 130.332 206.923 129.313Z" fill="#005D4D"/>
<path d="M225.465 125.265V123.094C226.238 123.094 226.843 122.853 227.282 122.37C227.721 121.87 227.94 121.182 227.94 120.306H230.994C230.994 121.236 230.749 122.076 230.257 122.826C229.783 123.577 229.125 124.175 228.283 124.622C227.458 125.051 226.519 125.265 225.465 125.265ZM223.517 134.138V131.592H225.755V134.138H223.517ZM223.517 125.533V123.094H225.729V125.533H223.517ZM228.204 128.938V128.321H231.258V128.938H228.204ZM228.204 128.348C228.204 127.455 227.984 126.767 227.545 126.284C227.107 125.784 226.501 125.533 225.729 125.533V123.362C226.782 123.362 227.721 123.586 228.546 124.032C229.388 124.461 230.047 125.051 230.52 125.802C231.012 126.552 231.258 127.401 231.258 128.348H228.204ZM223.517 117.626V115.106H225.492V117.626H223.517ZM230.994 120.333H227.94C227.94 119.475 227.721 118.814 227.282 118.35C226.843 117.867 226.238 117.626 225.465 117.626V115.106C226.554 115.106 227.51 115.33 228.335 115.776C229.16 116.223 229.81 116.84 230.283 117.626C230.757 118.412 230.994 119.315 230.994 120.333ZM231.258 128.911C231.258 129.93 231.021 130.832 230.547 131.618C230.073 132.405 229.423 133.021 228.599 133.468C227.774 133.915 226.817 134.138 225.729 134.138V131.592C226.501 131.592 227.107 131.359 227.545 130.895C227.984 130.412 228.204 129.751 228.204 128.911H231.258ZM220.99 134.138V115.106H224.044V134.138H220.99Z" fill="#005D4D"/>
<path d="M236.111 130.627V128.08H242.825V130.627H236.111ZM240.561 115.106L235.953 134.138H232.978L237.586 115.106H240.561ZM240.613 115.106L245.194 134.138H242.219L237.638 115.106H240.613Z" fill="#005D4D"/>
<path d="M249.582 134.138V131.592H256.137V134.138H249.582ZM247.318 134.138V115.106H250.372V134.138H247.318Z" fill="#005D4D"/>
<path d="M270.706 134.138L267.389 125.024H270.416L273.734 134.138H270.706ZM265.783 126.472V123.925H268.021V126.472H265.783ZM265.783 117.626V115.106H268.021V117.626H265.783ZM270.469 121.271V120.306H273.523V121.271H270.469ZM273.523 120.333H270.469C270.469 119.475 270.25 118.814 269.811 118.35C269.372 117.867 268.766 117.626 267.994 117.626V115.106C269.082 115.106 270.039 115.33 270.864 115.776C271.689 116.223 272.338 116.84 272.812 117.626C273.286 118.412 273.523 119.315 273.523 120.333ZM273.523 121.245C273.523 122.263 273.286 123.166 272.812 123.952C272.338 124.738 271.689 125.355 270.864 125.802C270.039 126.248 269.082 126.472 267.994 126.472V123.925C268.766 123.925 269.372 123.693 269.811 123.228C270.25 122.746 270.469 122.085 270.469 121.245H273.523ZM263.387 134.138V115.106H266.441V134.138H263.387Z" fill="#005D4D"/>
<path d="M278.372 134.138V131.592H285.454V134.138H278.372ZM278.635 125.936V123.362H283.874V125.936H278.635ZM276.371 115.106H279.425V134.138H276.371V115.106ZM278.635 115.106H285.191V117.626H278.635V115.106Z" fill="#005D4D"/>
<path d="M295.572 129.742C295.572 129.117 295.388 128.571 295.019 128.107C294.65 127.624 294.168 127.169 293.571 126.74C292.992 126.311 292.369 125.882 291.702 125.453C291.035 125.006 290.403 124.515 289.806 123.979C289.227 123.425 288.744 122.781 288.358 122.049C287.99 121.316 287.805 120.458 287.805 119.475H290.859C290.859 120.083 291.044 120.628 291.412 121.111C291.798 121.593 292.281 122.049 292.86 122.478C293.457 122.907 294.089 123.344 294.756 123.791C295.423 124.22 296.046 124.711 296.625 125.265C297.222 125.802 297.705 126.436 298.073 127.169C298.442 127.883 298.626 128.741 298.626 129.742H295.572ZM287.805 119.502C287.805 118.537 288.042 117.697 288.516 116.983C288.99 116.25 289.639 115.687 290.464 115.294C291.307 114.883 292.263 114.677 293.334 114.677V117.224C292.562 117.224 291.956 117.429 291.517 117.84C291.079 118.233 290.859 118.787 290.859 119.502H287.805ZM298.626 129.715C298.626 130.698 298.389 131.547 297.915 132.262C297.441 132.977 296.792 133.539 295.967 133.95C295.142 134.344 294.185 134.54 293.097 134.54V132.02C293.869 132.02 294.475 131.815 294.914 131.404C295.353 130.993 295.572 130.43 295.572 129.715H298.626ZM295.572 119.475C295.484 118.725 295.23 118.162 294.808 117.787C294.405 117.411 293.913 117.224 293.334 117.224V114.677C294.229 114.677 295.028 114.856 295.73 115.213C296.432 115.571 297.002 116.071 297.441 116.714C297.898 117.34 298.187 118.082 298.31 118.939L295.572 119.475ZM290.201 128.563C290.289 129.635 290.587 130.484 291.096 131.109C291.605 131.717 292.272 132.02 293.097 132.02V134.54C291.5 134.54 290.201 134.058 289.201 133.093C288.218 132.128 287.63 130.787 287.437 129.072L290.201 128.563Z" fill="#005D4D"/>
<path d="M309.002 129.34V119.878H312.056V129.34H309.002ZM301.024 129.34V119.878H304.078V129.34H301.024ZM312.056 119.931H309.002C309.002 119.073 308.782 118.412 308.343 117.948C307.905 117.465 307.299 117.224 306.527 117.224V114.704C307.615 114.704 308.572 114.927 309.397 115.374C310.221 115.821 310.871 116.437 311.345 117.224C311.819 118.01 312.056 118.913 312.056 119.931ZM301.024 119.931C301.024 118.913 301.261 118.01 301.735 117.224C302.209 116.437 302.858 115.821 303.683 115.374C304.526 114.927 305.482 114.704 306.553 114.704V117.224C305.781 117.224 305.175 117.465 304.736 117.948C304.298 118.412 304.078 119.073 304.078 119.931H301.024ZM312.056 129.313C312.056 130.332 311.819 131.234 311.345 132.02C310.871 132.807 310.221 133.423 309.397 133.87C308.572 134.317 307.615 134.54 306.527 134.54V131.994C307.299 131.994 307.905 131.761 308.343 131.297C308.782 130.814 309.002 130.153 309.002 129.313H312.056ZM301.024 129.313H304.078C304.078 130.153 304.298 130.814 304.736 131.297C305.175 131.761 305.781 131.994 306.553 131.994V134.54C305.482 134.54 304.526 134.317 303.683 133.87C302.858 133.423 302.209 132.807 301.735 132.02C301.261 131.234 301.024 130.332 301.024 129.313Z" fill="#005D4D"/>
<path d="M323.042 129.34V115.106H326.096V129.34H323.042ZM315.091 129.34V115.106H318.145V129.34H315.091ZM326.096 129.313C326.096 130.332 325.859 131.234 325.385 132.02C324.911 132.807 324.262 133.423 323.437 133.87C322.612 134.317 321.656 134.54 320.567 134.54V132.02C321.34 132.02 321.945 131.788 322.384 131.323C322.823 130.841 323.042 130.171 323.042 129.313H326.096ZM315.091 129.313H318.145C318.145 130.171 318.365 130.841 318.803 131.323C319.242 131.788 319.848 132.02 320.62 132.02V134.54C319.549 134.54 318.593 134.317 317.75 133.87C316.925 133.423 316.276 132.807 315.802 132.02C315.328 131.234 315.091 130.332 315.091 129.313Z" fill="#005D4D"/>
<path d="M336.577 134.138L333.26 125.024H336.287L339.605 134.138H336.577ZM331.654 126.472V123.925H333.891V126.472H331.654ZM331.654 117.626V115.106H333.891V117.626H331.654ZM336.34 121.271V120.306H339.394V121.271H336.34ZM339.394 120.333H336.34C336.34 119.475 336.121 118.814 335.682 118.35C335.243 117.867 334.637 117.626 333.865 117.626V115.106C334.953 115.106 335.91 115.33 336.735 115.776C337.56 116.223 338.209 116.84 338.683 117.626C339.157 118.412 339.394 119.315 339.394 120.333ZM339.394 121.245C339.394 122.263 339.157 123.166 338.683 123.952C338.209 124.738 337.56 125.355 336.735 125.802C335.91 126.248 334.953 126.472 333.865 126.472V123.925C334.637 123.925 335.243 123.693 335.682 123.228C336.121 122.746 336.34 122.085 336.34 121.245H339.394ZM329.258 134.138V115.106H332.312V134.138H329.258Z" fill="#005D4D"/>
<path d="M341.978 129.34V119.878H345.032V129.34H341.978ZM341.978 119.904C341.978 118.886 342.215 117.983 342.689 117.197C343.163 116.411 343.813 115.794 344.638 115.347C345.48 114.901 346.437 114.677 347.507 114.677V117.197C346.735 117.197 346.129 117.438 345.691 117.921C345.252 118.385 345.032 119.047 345.032 119.904H341.978ZM341.978 129.34H345.032C345.032 130.18 345.252 130.841 345.691 131.323C346.129 131.788 346.735 132.02 347.507 132.02V134.567C346.437 134.567 345.48 134.344 344.638 133.897C343.813 133.45 343.163 132.834 342.689 132.047C342.215 131.261 341.978 130.358 341.978 129.34ZM350.377 120.655C350.289 119.583 349.991 118.743 349.482 118.135C348.973 117.51 348.306 117.197 347.481 117.197V114.677C349.078 114.677 350.377 115.16 351.377 116.125C352.378 117.072 352.966 118.412 353.141 120.146L350.377 120.655ZM350.377 128.563L353.141 129.099C352.966 130.814 352.378 132.154 351.377 133.119C350.377 134.084 349.078 134.567 347.481 134.567V132.02C348.306 132.02 348.973 131.717 349.482 131.109C349.991 130.501 350.289 129.653 350.377 128.563Z" fill="#005D4D"/>
<path d="M357.509 134.138V131.592H364.592V134.138H357.509ZM357.773 125.936V123.362H363.012V125.936H357.773ZM355.508 115.106H358.562V134.138H355.508V115.106ZM357.773 115.106H364.328V117.626H357.773V115.106Z" fill="#005D4D"/>
<path d="M374.71 129.742C374.71 129.117 374.525 128.571 374.157 128.107C373.788 127.624 373.306 127.169 372.709 126.74C372.13 126.311 371.506 125.882 370.839 125.453C370.173 125.006 369.541 124.515 368.944 123.979C368.365 123.425 367.882 122.781 367.496 122.049C367.127 121.316 366.943 120.458 366.943 119.475H369.997C369.997 120.083 370.181 120.628 370.55 121.111C370.936 121.593 371.419 122.049 371.998 122.478C372.595 122.907 373.227 123.344 373.893 123.791C374.56 124.22 375.184 124.711 375.763 125.265C376.36 125.802 376.842 126.436 377.211 127.169C377.579 127.883 377.764 128.741 377.764 129.742H374.71ZM366.943 119.502C366.943 118.537 367.18 117.697 367.654 116.983C368.128 116.25 368.777 115.687 369.602 115.294C370.445 114.883 371.401 114.677 372.472 114.677V117.224C371.7 117.224 371.094 117.429 370.655 117.84C370.216 118.233 369.997 118.787 369.997 119.502H366.943ZM377.764 129.715C377.764 130.698 377.527 131.547 377.053 132.262C376.579 132.977 375.93 133.539 375.105 133.95C374.28 134.344 373.323 134.54 372.235 134.54V132.02C373.007 132.02 373.613 131.815 374.051 131.404C374.49 130.993 374.71 130.43 374.71 129.715H377.764ZM374.71 119.475C374.622 118.725 374.367 118.162 373.946 117.787C373.542 117.411 373.051 117.224 372.472 117.224V114.677C373.367 114.677 374.166 114.856 374.868 115.213C375.57 115.571 376.14 116.071 376.579 116.714C377.035 117.34 377.325 118.082 377.448 118.939L374.71 119.475ZM369.339 128.563C369.427 129.635 369.725 130.484 370.234 131.109C370.743 131.717 371.41 132.02 372.235 132.02V134.54C370.638 134.54 369.339 134.058 368.338 133.093C367.355 132.128 366.767 130.787 366.574 129.072L369.339 128.563Z" fill="#005D4D"/>
<path d="M387.7 134.138V131.592H394.256V134.138H387.7ZM385.436 134.138V115.106H388.49V134.138H385.436Z" fill="#005D4D"/>
<path d="M396.626 134.138V115.106H399.68V134.138H396.626Z" fill="#005D4D"/>
<path d="M409.151 134.138L413.285 115.106H415.733L411.6 134.138H409.151ZM409.072 134.138L404.939 115.106H407.387L411.521 134.138H409.072ZM403.228 134.138V115.106H406.282V134.138H403.228ZM414.391 134.138V115.106H417.445V134.138H414.391Z" fill="#005D4D"/>
<path d="M421 134.138V115.106H424.054V134.138H421Z" fill="#005D4D"/>
<path d="M426.42 117.626V115.106H438.004V117.626H426.42ZM430.685 134.138V115.106H433.739V134.138H430.685Z" fill="#005D4D"/>
<path d="M442.123 134.138V131.592H449.206V134.138H442.123ZM442.387 125.936V123.362H447.626V125.936H442.387ZM440.123 115.106H443.177V134.138H440.123V115.106ZM442.387 115.106H448.942V117.626H442.387V115.106Z" fill="#005D4D"/>
<path d="M459.061 128.938V120.306H462.115V128.938H459.061ZM454.243 134.138V131.592H456.586V134.138H454.243ZM454.243 117.626V115.106H456.586V117.626H454.243ZM454.243 117.626V115.106H456.586V117.626H454.243ZM462.115 120.333H459.061C459.061 119.475 458.841 118.814 458.402 118.35C457.963 117.867 457.358 117.626 456.586 117.626V115.106C457.674 115.106 458.63 115.33 459.455 115.776C460.28 116.223 460.93 116.84 461.404 117.626C461.878 118.412 462.115 119.315 462.115 120.333ZM462.115 128.911C462.115 129.93 461.878 130.832 461.404 131.618C460.93 132.405 460.28 133.021 459.455 133.468C458.63 133.915 457.674 134.138 456.586 134.138V131.592C457.358 131.592 457.963 131.359 458.402 130.895C458.841 130.412 459.061 129.751 459.061 128.911H462.115ZM451.847 134.138V115.106H454.901V134.138H451.847Z" fill="#005D4D"/>
</svg>
