<svg version="1.2" xmlns="http://www.w3.org/2000/svg" viewBox="0 0 40 40" width="40" height="40">
	<title>icon-3-svg</title>
	<style>
		.s0 { fill: #75c631 } 
	</style>
	<path class="s0" d="m35.7 7.7h1.3c0.4 0 0.7-0.4 0.7-0.8 0-0.5-0.3-0.8-0.7-0.8h-3c-0.4 0-0.8 0.3-0.8 0.8v2.9c0 0.5 0.4 0.8 0.8 0.8 0.4 0 0.8-0.3 0.8-0.8v-0.8c2.4 3.1 3.6 7 3.6 11 0 10.2-8.2 18.4-18.4 18.4-10.2 0-18.4-8.2-18.4-18.4 0-10.2 8.2-18.4 18.4-18.4q1.1 0 2.2 0.1c0.5 0 0.9-0.3 0.9-0.7 0.1-0.4-0.2-0.8-0.7-0.9q-1.2-0.1-2.4-0.1c-5.3 0-10.4 2.1-14.1 5.9-3.8 3.7-5.9 8.8-5.9 14.1 0 5.3 2.1 10.4 5.9 14.1 3.7 3.8 8.8 5.9 14.1 5.9 5.3 0 10.4-2.1 14.1-5.9 3.8-3.7 5.9-8.8 5.9-14.1 0-4.5-1.5-8.8-4.3-12.3z"/>
	<path class="s0" d="m8.5 11.8c-0.4-0.2-0.9-0.1-1.1 0.2-1.8 2.8-2.6 6.2-2.2 9.6 0.3 3.3 1.8 6.5 4.3 8.9 2.9 3 6.7 4.4 10.5 4.4 3.8 0 7.6-1.4 10.5-4.4 5.9-5.8 5.9-15.2 0-21-2.4-2.4-5.5-4-8.9-4.3-3.3-0.4-6.7 0.4-9.5 2.2-0.4 0.2-0.5 0.7-0.3 1.1 0.2 0.3 0.7 0.4 1.1 0.2 5.3-3.3 12.1-2.6 16.5 1.9 5.2 5.2 5.2 13.6 0 18.8-5.2 5.2-13.6 5.2-18.8 0-4.4-4.3-5.2-11.3-1.9-16.5 0.2-0.4 0.1-0.9-0.2-1.1z"/>
	<path class="s0" d="m30.1 20.8h1c0.4 0 0.8-0.4 0.8-0.8 0-0.4-0.4-0.8-0.8-0.8h-1c-0.4 0-0.7 0.4-0.7 0.8 0 0.4 0.3 0.8 0.7 0.8z"/>
	<path class="s0" d="m8.1 20c0 0.4 0.4 0.8 0.8 0.8h1c0.4 0 0.7-0.4 0.7-0.8 0-0.4-0.3-0.8-0.7-0.8h-1c-0.4 0-0.8 0.4-0.8 0.8z"/>
	<path class="s0" d="m20.8 9.9v-1c0-0.4-0.4-0.8-0.8-0.8-0.4 0-0.8 0.4-0.8 0.8v1c0 0.4 0.4 0.7 0.8 0.7 0.4 0 0.8-0.3 0.8-0.7z"/>
	<path class="s0" d="m19.2 30.1v1c0 0.4 0.4 0.8 0.8 0.8 0.4 0 0.8-0.4 0.8-0.8v-1c0-0.4-0.4-0.7-0.8-0.7-0.4 0-0.8 0.3-0.8 0.7z"/>
	<path fill-rule="evenodd" class="s0" d="m18.7 17.6q0.6-0.3 1.3-0.3 0.7 0 1.3 0.3l5.3-5.3c0.3-0.3 0.8-0.3 1.1 0 0.3 0.3 0.3 0.8 0 1.1l-5.3 5.3q0.3 0.6 0.3 1.3c0 1.5-1.2 2.7-2.7 2.7-1.5 0-2.7-1.2-2.7-2.7q0-0.7 0.3-1.3l-2.6-2.6c-0.3-0.3-0.3-0.8 0-1.1 0.3-0.3 0.8-0.3 1.1 0zm1.3 1.2c-0.7 0-1.2 0.5-1.2 1.2 0 0.6 0.5 1.1 1.2 1.1 0.6 0 1.1-0.5 1.1-1.1 0-0.7-0.5-1.2-1.1-1.2z"/>
	<path class="s0" d="m10.6 10.6q0.2-0.3 0.2-0.6 0-0.3-0.2-0.5-0.3-0.3-0.6-0.3-0.3 0-0.5 0.3-0.3 0.2-0.3 0.5 0 0.3 0.3 0.6 0.2 0.2 0.5 0.2 0.3 0 0.6-0.2z"/>
	<path class="s0" d="m25.4 2.3q0.3 0 0.6-0.2 0.2-0.2 0.2-0.5 0-0.4-0.2-0.6-0.3-0.2-0.6-0.2-0.3 0-0.5 0.2-0.3 0.2-0.3 0.6 0 0.3 0.3 0.5 0.2 0.2 0.5 0.2z"/>
</svg>