<svg version="1.2" xmlns="http://www.w3.org/2000/svg" viewBox="0 0 40 40" width="40" height="40">
	<title>icon-2-svg</title>
	<style>
		.s0 { fill: #75c631 } 
	</style>
	<path class="s0" d="m36.1 9.4c0 0.4-0.4 0.8-0.8 0.8-0.4 0-0.8-0.4-0.8-0.8 0-0.5 0.4-0.8 0.8-0.8 0.4 0 0.8 0.3 0.8 0.8z"/>
	<path class="s0" d="m31.4 9.4c0 0.4-0.3 0.8-0.8 0.8-0.4 0-0.8-0.4-0.8-0.8 0-0.5 0.4-0.8 0.8-0.8 0.5 0 0.8 0.3 0.8 0.8z"/>
	<path class="s0" d="m26.7 9.4c0 0.4-0.3 0.8-0.8 0.8-0.4 0-0.7-0.4-0.7-0.8 0-0.5 0.3-0.8 0.7-0.8 0.5 0 0.8 0.3 0.8 0.8z"/>
	<path fill-rule="evenodd" class="s0" d="m40 9.4c0 5.1-4.2 9.4-9.4 9.4q-1.9 0-3.7-0.8l-4.5 2.2c-0.3 0.2-0.6 0.1-0.9-0.1-0.2-0.2-0.3-0.5-0.2-0.8l1.5-4.7c-1-1.6-1.6-3.3-1.6-5.2 0-5.2 4.3-9.4 9.4-9.4 5.2 0 9.4 4.2 9.4 9.4zm-1.6 0c0-4.3-3.5-7.8-7.8-7.8-4.3 0-7.8 3.5-7.8 7.8 0 1.7 0.5 3.3 1.5 4.6 0.2 0.2 0.2 0.5 0.2 0.7l-1.1 3.3 3.1-1.6c0.3-0.1 0.5-0.1 0.7 0q1.6 0.8 3.4 0.8c4.3 0 7.8-3.5 7.8-7.8z"/>
	<path class="s0" d="m15.5 25.2c0 0.4-0.4 0.7-0.8 0.7-0.4 0-0.8-0.3-0.8-0.7 0-0.5 0.4-0.8 0.8-0.8 0.4 0 0.8 0.3 0.8 0.8z"/>
	<path class="s0" d="m27.1 24.7c-0.3-0.3-0.8-0.3-1.1 0l-3.7 3.7c-0.6 0.5-1.4 0.6-2 0.3q-1.3-0.9-2.5-1.8c-0.3-0.3-0.8-0.2-1.1 0.1-0.3 0.3-0.2 0.8 0.1 1.1q1.3 1 2.7 1.9c1.2 0.8 2.8 0.6 3.9-0.5l3.2-3.2 7.3 7.4-2.9 2.8c-1.9 1.9-4.7 2.5-7 1.4-12.3-5.5-18.7-15-21.9-21.9-1.1-2.4-0.5-5.2 1.3-7.1l2.9-2.8 7.3 7.3-3.2 3.2c-1 1-1.2 2.7-0.4 3.9q0.8 1.3 1.8 2.5c0.2 0.3 0.7 0.4 1.1 0.1 0.3-0.2 0.3-0.7 0.1-1.1q-0.9-1.1-1.7-2.4c-0.4-0.6-0.3-1.4 0.2-1.9l3.8-3.8c0.3-0.3 0.3-0.8 0-1.1l-8.5-8.4c-0.3-0.3-0.8-0.3-1.1 0l-3.4 3.4c-2.3 2.3-3 5.9-1.6 8.9 4.6 9.8 12.3 17.9 22.7 22.6 2.9 1.4 6.4 0.7 8.7-1.7l3.4-3.4c0.4-0.3 0.4-0.8 0-1.1z"/>
</svg>