<svg version="1.2" xmlns="http://www.w3.org/2000/svg" viewBox="0 0 44 40" width="44" height="40">
	<title>icon-svg</title>
	<style>
		.s0 { fill: #75c631 } 
	</style>
	<path fill-rule="evenodd" class="s0" d="m42.8 40h-42.2c-0.3 0-0.6-0.3-0.6-0.6v-15.2c0-0.3 0.3-0.6 0.6-0.6 0.4 0 0.7 0.3 0.7 0.6v13.9l16-12.4-16-8.9v4.5c0 0.3-0.3 0.6-0.7 0.6-0.3 0-0.6-0.3-0.6-0.6v-5.6c0-0.2 0.1-0.4 0.2-0.5l5.7-4.4v-5.9c0-0.4 0.3-0.7 0.7-0.7h7.8l3.9-3c2.1-1.6 5-1.6 7.1 0l3.9 3h7.6c0.3 0 0.6 0.3 0.6 0.7v5.8l5.7 4.5c0.2 0.1 0.3 0.3 0.3 0.5v23.7q0 0.1-0.1 0.3-0.2 0.3-0.6 0.3zm-35.6-34.5v13.1l11.2 6.3c2-1.6 4.9-1.6 6.9 0l4.4-2.5c0.3-0.2 0.7 0 0.9 0.3 0.2 0.3 0.1 0.7-0.3 0.8l-3.9 2.2 7.3 5.7c0.2 0.2 0.3 0.6 0.1 0.9-0.2 0.3-0.6 0.3-0.9 0.1l-8-6.2-0.3-0.3c-1.6-1.2-3.9-1.2-5.5 0l-16.6 12.8h38.5l-5.8-4.5c-0.3-0.2-0.4-0.6-0.2-0.9 0.3-0.3 0.7-0.4 0.9-0.1l6.3 4.9v-21.3l-9.3 5.3c-0.3 0.2-0.7 0.1-0.9-0.2-0.2-0.3-0.1-0.7 0.2-0.9l4.1-2.3v-13.2zm9.2-1.3h10.7l-2.6-2c-1.6-1.2-3.8-1.2-5.4 0zm21 8.1v5.7l4.3-2.4zm-31.6 0l-4.2 3.2 4.2 2.4z"/>
	<path class="s0" d="m15.8 10.4h11.8c0.4 0 0.7-0.2 0.7-0.6 0-0.3-0.3-0.6-0.7-0.6h-11.8c-0.3 0-0.6 0.3-0.6 0.6 0 0.4 0.3 0.6 0.6 0.6z"/>
	<path class="s0" d="m12 19.1h19.5c0.3 0 0.6-0.3 0.6-0.6 0-0.4-0.3-0.7-0.6-0.7h-19.5c-0.3 0-0.6 0.3-0.6 0.7 0 0.3 0.3 0.6 0.6 0.6z"/>
	<path class="s0" d="m12 14.8h5.2c0.3 0 0.6-0.3 0.6-0.7 0-0.3-0.3-0.6-0.6-0.6h-5.2c-0.3 0-0.6 0.3-0.6 0.6 0 0.4 0.3 0.7 0.6 0.7z"/>
	<path class="s0" d="m19.9 14.1c0 0.4 0.3 0.7 0.6 0.7h11c0.3 0 0.6-0.3 0.6-0.7 0-0.3-0.3-0.6-0.6-0.6h-11c-0.3 0-0.6 0.3-0.6 0.6z"/>
</svg>